<svg xmlns="http://www.w3.org/2000/svg" fill="none" class="icon icon-hamburger" viewBox="0 0 20 8"><path fill="currentColor" d="M0 1C0 0.734784 0.15051 0.48043 0.418419 0.292893C0.686328 0.105357 1.04969 0 1.42857 0H18.5714C18.9503 0 19.3137 0.105357 19.5816 0.292893C19.8495 0.48043 20 0.734784 20 1C20 1.26522 19.8495 1.51957 19.5816 1.70711C19.3137 1.89464 18.9503 2 18.5714 2H1.42857C1.04969 2 0.686328 1.89464 0.418419 1.70711C0.15051 1.51957 0 1.26522 0 1ZM0 7C0 6.73478 0.15051 6.48043 0.418419 6.29289C0.686328 6.10536 1.04969 6 1.42857 6H18.5714C18.9503 6 19.3137 6.10536 19.5816 6.29289C19.8495 6.48043 20 6.73478 20 7C20 7.26522 19.8495 7.51957 19.5816 7.70711C19.3137 7.89464 18.9503 8 18.5714 8H1.42857C1.04969 8 0.686328 7.89464 0.418419 7.70711C0.15051 7.51957 0 7.26522 0 7Z"/></svg>
